# xmcd
#
# Track frame offsets:
#  150
#  16800
#  30607
#  53283
#  64801
#  76474
#  90985
#  109487
#  124262
#  139712
#  152687
#  165794
#  182219
#  201028
#  219837
#
# Disc length: 3166 seconds
#
# Revision: 0
# Processed by: cddbd v1.5.1PL2 Copyright (c) Steve Scherf et al.
# Submitted via: Collectorz.com Music Collector 6.9
#
DISCID=b70c5c0f
DTITLE=Various Artist - Best In Female Country Vol.2
DYEAR=1900
DGENRE=KARAOKE
TTITLE0=Pam Tillis - Mi Vida Loca (My Crazy Life)
TTITLE1=The Judds - Love Can Build A Bridge
TTITLE2=Tanya Tucker - Let The Good Times Roll
TTITLE3=Emmylou Harris - Mr. Sandman
TTITLE4=Patsy Cline - She's Got You
TTITLE5=Wynonna - No One Else On Earth
TTITLE6=Faith Hill - It Matters To Me
TTITLE7=Jo Dee Messina -  Heads Carolina, Tails California
TTITLE8=LeAnn Rimes - Blue
TTITLE9=LeAnn Rimes - Hurt Me
TTITLE10=Lorrie Morgan - Watch Me
TTITLE11=Reba McEntire - Starting Over Again
TTITLE12=Shania Twain - Any Man Of Mine
TTITLE13=Shania Twain -  If Your Not In It For Love
TTITLE14=Tricia Yearwood - Believe Me Baby (I Lied)
EXTD=
EXTT0=
EXTT1=
EXTT2=
EXTT3=
EXTT4=
EXTT5=
EXTT6=
EXTT7=
EXTT8=
EXTT9=
EXTT10=
EXTT11=
EXTT12=
EXTT13=
EXTT14=
PLAYORDER=
